PathFileType        4      (X/Y/Z)      C:\Users\pc\Desktop\IMUTRC\Sujet_03\Sujet_03_velo_60.trc         
DataRate	CameraRate	NumFrames	NumMarkers	Units	OrigDataRate	OrigDataStartFrame	OrigNumFrames
60.0	60.0	4	64	mm	60.0	581	929
Frame#	Time	pHipOrigin			pRightASI			pLeftASI			pRightCSI			pLeftCSI			pRightIschialTub			pLeftIschialTub			pSacrum			pL5SpinalProcess			pL3SpinalProcess			pT12SpinalProcess			pIJ			pT4SpinalProcess			pT8SpinalProcess			pPX			pC7SpinalProcess			pTopOfHead			pRightAuricularis			pLeftAuricularis			pBackOfHead			pRightAcromion			pLeftAcromion			pRightArmLatEpicondyle			pRightArmMedEpicondyle			pLeftArmLatEpicondyle			pLeftArmMedEpicondyle			pRightUlnarStyloid			pRightRadialStyloid			pRightOlecranon			pLeftUlnarStyloid			pLeftRadialStyloid			pLeftOlecranon			pRightTopOfHand			pRightPinky			pRightBallHand			pLeftTopOfHand			pLeftPinky			pLeftBallHand			pRightGreaterTrochanter			pRightKneeLatEpicondyle			pRightKneeMedEpicondyle			pRightPatella			pLeftGreaterTrochanter			pLeftKneeLatEpicondyle			pLeftKneeMedEpicondyle			pLeftPatella			pRightTibialTub			pRightLatMalleolus			pRightMedMalleolus			pLeftTibialTub			pLeftLatMalleolus			pLeftMedMalleolus			pRightHeelFoot			pRightFirstMetatarsal			pRightFifthMetatarsal			pRightPivotFoot			pRightHeelCenter			pRightToe			pLeftHeelFoot			pLeftFirstMetatarsal			pLeftFifthMetatarsal			pLeftPivotFoot			pLeftHeelCenter			pLeftToe			
		X1	Y1	Z1	X2	Y2	Z2	X3	Y3	Z3	X4	Y4	Z4	X5	Y5	Z5	X6	Y6	Z6	X7	Y7	Z7	X8	Y8	Z8	X9	Y9	Z9	X10	Y10	Z10	X11	Y11	Z11	X12	Y12	Z12	X13	Y13	Z13	X14	Y14	Z14	X15	Y15	Z15	X16	Y16	Z16	X17	Y17	Z17	X18	Y18	Z18	X19	Y19	Z19	X20	Y20	Z20	X21	Y21	Z21	X22	Y22	Z22	X23	Y23	Z23	X24	Y24	Z24	X25	Y25	Z25	X26	Y26	Z26	X27	Y27	Z27	X28	Y28	Z28	X29	Y29	Z29	X30	Y30	Z30	X31	Y31	Z31	X32	Y32	Z32	X33	Y33	Z33	X34	Y34	Z34	X35	Y35	Z35	X36	Y36	Z36	X37	Y37	Z37	X38	Y38	Z38	X39	Y39	Z39	X40	Y40	Z40	X41	Y41	Z41	X42	Y42	Z42	X43	Y43	Z43	X44	Y44	Z44	X45	Y45	Z45	X46	Y46	Z46	X47	Y47	Z47	X48	Y48	Z48	X49	Y49	Z49	X50	Y50	Z50	X51	Y51	Z51	X52	Y52	Z52	X53	Y53	Z53	X54	Y54	Z54	X55	Y55	Z55	X56	Y56	Z56	X57	Y57	Z57	X58	Y58	Z58	X59	Y59	Z59	X60	Y60	Z60	X61	Y61	Z61	X62	Y62	Z62	X63	Y63	Z63	X64	Y64	Z64	
581	9.667	0.0	1250.01021	7.654105012890054E-14	92.29199000000001	1337.5365	132.1030900000001	80.02901999999999	1333.87504	-142.0994499999999	59.92005000000001	1412.68357	108.56514000000008	49.80745999999999	1409.66141	-117.80596999999992	-64.1627	1205.0847	60.15253000000008	-69.219	1203.57362	-53.003969999999924	-62.47726	1284.30006	2.3247400000000824	-5.57936	1376.59205	-1.6273099999999152	59.28075	1477.83428	-6.102429999999913	120.47941	1569.31261	-10.403189999999912	388.87011	1610.6929	-21.561919999999926	264.9036	1712.86502	-19.23718999999991	190.86077	1652.77061	-14.994539999999912	291.23122	1524.44522	-15.808199999999923	310.759	1748.08476	-20.92261999999991	563.05091	1845.72365	-53.46890999999992	490.40293	1789.81376	31.38393000000008	467.67864	1789.46505	-111.18046999999991	448.20898	1837.00589	-35.10349999999991	317.67509	1714.84105	195.80084000000008	303.61044	1693.5116	-238.1110199999999	417.87118	1438.25566	155.00173000000007	399.2733	1437.442	97.34829000000006	394.91442	1417.10057	-203.70493999999994	377.94385	1414.83395	-145.58654999999993	509.87259	1201.01641	113.33085000000004	557.76213	1222.81081	124.60582000000004	382.24461	1432.79253	123.26909000000006	490.57728	1180.15191	-185.68823999999995	538.58307	1203.63174	-192.42996999999994	359.98527	1410.18448	-173.59960999999996	652.14639	1068.68085	218.75760000000002	574.15152	1096.3452	162.61524000000003	550.03239	1164.51807	122.39732000000004	663.77007	1082.7455	-290.47568	577.52239	1090.41713	-240.37763999999999	538.64119	1148.30304	-195.91706999999997	33.06936000000001	1226.29791	162.7895900000001	351.49999	970.5189	103.04390000000002	349.52396	976.73757	23.30547000000004	376.2003	1010.44623	62.70974000000004	10.40318999999999	1233.33023	-169.4732099999999	299.94898	940.93664	-202.01949999999997	310.81712	934.19491	-123.09473999999996	335.22684	971.04197	-161.04603999999998	397.23916	932.45136	54.979990000000036	247.75867	538.75742	86.82887000000001	241.54001	541.43087	20.341430000000017	324.93989	880.49352	-158.95377999999997	4.242639999999994	613.55578	-93.57059999999996	20.34143	618.43773	-28.88483999999996	183.24727	467.62052	33.35995000000001	345.80439	438.09638	-17.72610999999999	346.38557	415.43021	60.73371000000001	368.52868	421.47452	18.656000000000002	222.47718	458.72841	30.512150000000013	449.31323	401.24933	12.204859999999998	-71.89244	583.15987	-25.57208999999996	61.08242	475.17591	-1.8016699999999748	35.85903999999999	457.50792	-77.41368999999997	65.4413	450.53372	-40.39227999999998	-42.42642	555.84423	-29.00106999999996	125.30324	392.6478	-46.785299999999985	
582	9.683	0.0	1250.01021	7.654105012890054E-14	92.75694000000001	1337.42026	131.81250000000009	79.44782999999998	1333.93316	-142.3319199999999	60.385000000000005	1412.62545	108.39079000000008	49.40062999999999	1409.71953	-117.86407999999992	-63.93021999999999	1205.0847	60.385000000000076	-69.45147	1203.63174	-52.77148999999992	-62.41914	1284.30006	2.6153300000000828	-5.57936	1376.53393	-1.569199999999915	59.16452	1477.83428	-6.276789999999913	120.24694	1569.42885	-10.75189999999991	388.57952	1611.27409	-22.491809999999926	264.38053	1713.21373	-19.99271999999991	190.45395	1652.94497	-15.575729999999911	291.05687	1524.79393	-16.447499999999927	310.17782	1748.49159	-21.85250999999991	562.52784	1846.13048	-54.51503999999992	489.82174	1790.39495	30.337800000000083	467.09745	1789.87188	-112.22659999999992	447.68591	1837.52896	-36.20774999999991	317.79133	1714.60857	195.04530000000008	302.8549	1693.91843	-238.9246799999999	417.58059	1437.90695	155.23420000000004	398.80835	1436.74458	97.58077000000006	394.217	1417.39116	-204.05364999999995	377.07208	1415.18266	-145.99337999999995	509.2914	1200.37711	113.91203000000004	557.23907	1222.1715	125.07076000000005	381.83779	1432.26946	123.55969000000006	489.76362	1180.4425	-185.39764999999994	537.76941	1203.92233	-192.13937999999993	359.22973	1410.53319	-173.94831999999994	651.56521	1067.98343	219.16443000000004	573.51222	1095.7059	163.08019000000002	549.45121	1163.87876	122.92038000000004	663.01453	1082.91986	-290.01074	576.76685	1090.6496	-239.97080999999997	537.82753	1148.59363	-195.51023999999998	32.023230000000005	1224.72871	162.7895900000001	338.42335	954.65258	103.04390000000004	336.97039	961.16184	23.363590000000038	365.09969	993.47566	62.942210000000046	10.11259999999999	1234.37636	-169.6475599999999	309.24792	952.15349	-205.44848999999996	320.75536	945.2374	-126.58183999999996	343.65401	983.18871	-164.53314999999998	385.61548	917.28246	55.44494000000004	242.52802	521.03132	85.78274000000002	237.00677	523.58852	19.179070000000017	333.54141	891.59413	-161.85969999999998	8.892109999999995	629.94517	-94.44236999999995	24.932789999999997	635.23394	-29.75660999999996	178.36532	449.95253	32.081350000000015	340.86432	420.48651	-19.120949999999997	341.50363	397.7041	59.28075	363.58861	403.80653	17.261160000000004	217.53711	441.06042	29.233550000000015	444.37317	383.58134	10.693779999999997	-67.59168	600.88598	-26.26950999999996	64.27893	491.73965	-1.801669999999974	38.88119999999999	473.78107	-77.29744999999997	68.34722	466.74874	-40.21791999999998	-38.41625	573.27974	-29.52413999999996	127.62797	408.16541	-46.26222999999998	
583	9.7	0.0	1250.01021	7.654105012890054E-14	93.33813000000002	1337.36214	131.46379000000007	78.86664999999999	1333.99128	-142.62251999999992	60.84995000000001	1412.56733	108.21643000000009	48.93567999999999	1409.77765	-118.03843999999991	-63.69774999999999	1205.02658	60.617470000000075	-69.68394	1203.63174	-52.48089999999992	-62.41914	1284.35818	2.8478000000000825	-5.63748	1376.53393	-1.5110799999999152	59.04828	1477.83428	-6.451139999999913	120.01446	1569.48697	-11.10060999999991	388.23081	1611.79715	-23.363589999999924	263.91558	1713.50433	-20.74825999999991	190.10524	1653.11932	-16.15690999999991	290.94063	1525.14264	-17.086799999999926	309.65475	1748.89842	-22.72428999999991	562.00478	1846.53731	-55.61928999999992	489.29868	1790.85989	29.29167000000008	466.51627	1790.27871	-113.27272999999991	447.16285	1837.9939	-37.25387999999992	317.84944	1714.43422	194.2897600000001	302.09936	1694.4415	-239.6802199999999	417.17376	1437.55824	155.46668000000005	398.28529	1436.10528	97.92948000000005	393.5777	1417.79799	-204.28611999999995	376.25842	1415.64761	-146.22584999999995	508.71022	1199.85404	114.43510000000005	556.716	1221.64844	125.47759000000005	381.37284	1431.80452	123.85028000000005	488.94997	1180.79121	-185.10704999999993	537.01387	1204.21292	-191.84878999999995	358.47419	1410.94002	-174.23891999999995	650.98402	1067.34413	219.57126000000002	572.93103	1095.12472	163.48702000000003	548.87002	1163.3557	123.32721000000004	662.25899	1083.21045	-289.54579	575.95319	1090.94019	-239.56397999999996	537.01387	1148.94234	-195.16152999999997	31.15145000000001	1223.45011	162.7895900000001	325.11424	939.83239	103.21825000000004	324.00999	946.39977	23.479830000000035	353.47601	977.37687	63.11657000000004	9.82200999999999	1235.24814	-169.76379999999992	318.48875	963.8934	-208.23816999999997	330.63549	957.09355	-129.48775999999998	352.02305	995.91663	-167.32282999999998	373.52686	902.81098	56.200480000000034	235.72817	504.58381	85.08531000000002	230.90434	507.02478	18.481650000000016	342.25917	903.39217	-164.18443999999997	14.762069999999994	645.69525	-95.37226999999996	30.860859999999995	651.2165	-30.686509999999963	171.62359	433.67938	31.267690000000016	333.94824	403.74842	-20.225199999999997	334.58754	380.73354	58.11838	356.67252	386.89408	16.040670000000002	210.79538	424.67103	28.30365000000001	437.34084	366.37829	9.415179999999996	-61.83796	617.56595	-26.850689999999958	69.16088	507.48973	-2.1503799999999735	43.414429999999996	489.41491	-77.52991999999998	72.93857	482.32447	-40.50850999999998	-32.95312	589.72725	-30.04719999999996	131.69626	423.21807	-46.37846999999998	
584	9.717	0.0	1250.01021	7.654105012890054E-14	93.97743000000001	1337.30402	130.9988400000001	78.16922999999998	1334.04939	-142.9712299999999	61.37301000000001	1412.50921	107.98396000000008	48.354499999999994	1409.77765	-118.21278999999991	-63.40715999999999	1205.02658	60.966190000000076	-69.91642	1203.68986	-52.13218999999992	-62.41914	1284.35818	3.1965100000000826	-5.63748	1376.47581	-1.5110799999999152	58.93204	1477.8924	-6.625499999999913	119.78199	1569.60321	-11.507439999999912	387.94022	1612.32022	-24.177249999999926	263.39252	1713.79492	-21.44567999999991	189.69841	1653.29368	-16.67997999999991	290.76628	1525.54947	-17.726109999999924	309.13169	1749.30525	-23.53794999999991	561.48171	1846.94414	-56.781659999999924	488.77561	1791.38296	28.24553000000008	465.93509	1790.62742	-114.31885999999992	446.63978	1838.45885	-38.35812999999992	317.73321	1714.43422	193.5923400000001	301.34382	1695.02268	-240.37763999999993	416.6507	1437.26764	155.69915000000006	397.7041	1435.64033	98.16195000000006	392.88028	1418.26293	-204.40235999999993	375.561	1416.22879	-146.34208999999996	508.18715	1199.50533	114.72569000000004	556.19294	1221.29973	125.76818000000004	380.79165	1431.45581	124.14087000000006	488.19443	1181.25616	-184.81645999999995	536.20021	1204.61975	-191.55818999999994	357.77677	1411.46308	-174.35514999999995	650.46096	1066.87918	219.68749000000003	572.34985	1094.77601	163.71949000000004	548.28884	1163.00699	123.61780000000005	661.50345	1083.61728	-289.19708	575.19765	1091.34702	-239.21526999999998	536.25833	1149.34917	-194.87093999999996	30.57027000000001	1222.57833	162.8477100000001	311.6889	926.11645	103.85755000000005	310.64276	932.39324	24.119130000000037	341.56174	962.26609	63.523390000000035	9.47329999999999	1235.94556	-169.82191999999992	327.78769	976.2145	-210.15607999999997	340.51561	969.76336	-131.46378999999996	360.27586	1009.4001	-169.35696999999996	360.97329	889.2694	57.36285000000004	227.41724	489.53115	84.96908000000002	223.29083	491.914	18.307290000000012	351.15128	916.06197	-165.92798999999997	22.084989999999994	660.68979	-96.06968999999995	38.12566	666.44351	-31.442049999999963	163.02207	419.14979	31.035220000000013	324.99801	388.05645	-20.980739999999997	325.63731	364.75098	57.30473	347.60606	370.85341	15.168900000000002	202.13574	409.85085	27.954940000000015	428.15814	349.69832	8.252809999999995	-54.57316	633.31603	-27.025049999999958	75.78637	522.36804	-2.8477999999999724	49.516859999999994	504.35134	-77.99486999999998	79.21536	497.08654	-41.08969999999998	-25.862680000000005	605.24485	-30.337799999999966	137.5081	437.57332	-47.19212999999998	
